<svg width="863" height="1082" viewBox="0 0 863 1082" fill="none" xmlns="http://www.w3.org/2000/svg">
<rect width="863" height="1080" fill="url(#paint0_linear_1_7)"/>
<path d="M2.00003 2C-1.16664 102.667 20.7 319.2 133.5 380C274.5 456 373 734 376.5 806C379.3 863.6 466.333 1013.33 509.5 1081M732.5 2C733.833 47.8333 761.6 139.5 862 139.5M593 2C607 61.6667 654.5 186.6 732.5 209C810.5 231.4 851.333 332.333 862 380M460 2C452 57.8333 454.7 179.4 529.5 219C623 268.5 691 281 689 348.5C687.4 402.5 803.667 473 862 501.5M356.5 2C359.667 107 392.3 323.3 497.5 348.5C629 380 665 470 667 561.5C669 653 802 651 806 728.5C809.2 790.5 844.667 871.333 862 904M185 2C179.667 56.5 177.4 182.6 211 251C253 336.5 529.5 432 529.5 537.5C529.5 643 545.5 792.5 629 792.5C712.5 792.5 774.5 914 764.5 997.5C756.5 1064.3 778.5 1081 790.5 1081M593 870C630.167 869.333 704.5 891.1 704.5 983.5C704.5 1099 555.5 1025 563.5 957.5C569.9 903.5 585.833 876.667 593 870Z" stroke="#D0D0D0"/>
<defs>
<linearGradient id="paint0_linear_1_7" x1="863" y1="3.95793e-05" x2="32.0001" y2="730.5" gradientUnits="userSpaceOnUse">
<stop stop-color="#F2F2F2"/>
<stop offset="1" stop-color="white" stop-opacity="0"/>
</linearGradient>
</defs>
</svg>
